<svg aria-hidden="true" style="position:absolute;width:0;height:0;overflow:hidden" xmlns="http://www.w3.org/2000/svg"><defs><symbol id="facebook-icon" viewBox="0 0 16 32"><path fill="#fff" style="fill:var(--color1, #fff)" d="M14.266 15.97H10.09v15.39H3.763V15.97H.754v-5.409h3.009v-3.5c0-2.503 1.182-6.422 6.384-6.422l4.687.02v5.25h-3.401c-.558 0-1.342.28-1.342 1.474v3.183h4.729l-.553 5.403z"/></symbol><symbol id="telegram-icon" viewBox="0 0 40 32"><path fill="#fff" style="fill:var(--color1, #fff)" d="m16.205 20.751-.635 8.339c.909 0 1.302-.364 1.774-.802l4.261-3.801 8.829 6.035c1.619.842 2.76.399 3.197-1.39l5.797-25.346c.514-2.234-.866-3.108-2.443-2.56L2.92 13.398c-2.325.842-2.29 2.052-.395 2.6l8.709 2.528L31.463 6.712c.952-.588 1.818-.263 1.106.326L16.205 20.751z"/></symbol><symbol id="git-icon" viewBox="0 0 32 32"><path fill="#fff" style="fill:var(--color1, #fff)" d="M16 .941C7.729.941.941 7.729.941 16c0 7.058 4.953 13.47 11.529 15.059v-4.982c-.652.143-1.251.147-1.915-.049-.89-.263-1.613-.856-2.15-1.76-.342-.577-.949-1.203-1.581-1.157l-.155-1.758c1.368-.117 2.551.833 3.254 2.013.312.525.671.832 1.132.969.446.131.924.068 1.481-.129.14-1.116.651-1.534 1.037-2.122v-.001c-3.922-.585-5.486-2.666-6.106-4.308-.822-2.181-.381-4.905 1.073-6.627.028-.034.079-.121.06-.183-.667-2.014.146-3.679.176-3.856.769.228.894-.229 3.342 1.258l.423.254c.177.105.121.045.298.032a12.77 12.77 0 0 1 3.16-.445 12.84 12.84 0 0 1 3.204.456l.137.014c-.012-.002.037-.009.12-.058 3.057-1.852 2.947-1.247 3.767-1.513.03.177.831 1.87.172 3.858-.089.274 2.65 2.782 1.132 6.809-.62 1.643-2.184 3.724-6.106 4.309v.001c.503.766 1.107 1.174 1.104 2.755v6.219c6.577-1.589 11.529-8.001 11.529-15.059C31.058 7.728 24.271.94 15.999.94z"/></symbol><symbol id="arrow-icon" viewBox="0 0 32 32"><path d="m27.414 12.586-10-10a2 2 0 0 0-2.828 0l-10 10a2 2 0 1 0 2.828 2.828L14 8.828V28a2 2 0 1 0 4 0V8.828l6.586 6.586c.39.39.902.586 1.414.586s1.024-.195 1.414-.586a2 2 0 0 0 0-2.828z"/></symbol><symbol id="burger-close" viewBox="0 0 32 32"><path fill="none" stroke="#fff" style="stroke:var(--color1, #fff)" stroke-width="2" d="m2.519 2 26.963 28M2 29.481 30 2.518"/></symbol><symbol id="burger" viewBox="0 0 46 32"><path fill="none" stroke="#D41443" style="stroke:var(--color1, #D41443)" stroke-width="2.286" d="M0 2.286h45.714M0 16h45.714M0 29.714h45.714"/></symbol><symbol id="about-icon-close" viewBox="0 0 32 32"><path d="M26.667 7.303l-1.97-1.97-7.808 7.808-7.808-7.808-1.97 1.97 7.808 7.808-7.808 7.808 1.97 1.97 7.808-7.808 7.808 7.808 1.97-1.97-7.808-7.808 7.808-7.808z"></path>
</symbol><symbol id="company-icon" viewBox="0 0 24 24"><path d="M14.016 6.984V5.015H9.985v1.969h4.031zm6 0q.797 0 1.383.609t.586 1.406v3q0 .797-.586 1.406t-1.383.609h-6v-2.016H9.985v2.016h-6q-.844 0-1.406-.586t-.563-1.43v-3q0-.797.586-1.406t1.383-.609h3.984V5.014l2.016-2.016h3.984l2.016 2.016v1.969h4.031zm-10.032 9h4.031V15h6.984v3.984q0 .844-.586 1.43t-1.43.586H5.014q-.844 0-1.43-.586t-.586-1.43V15h6.984v.984z"/></symbol><symbol id="mail-icon" viewBox="0 0 32 32"><path d="M6.004 8h20.993c1.114 0 2.004.893 2.004 1.994v12.012A2 2 0 0 1 26.997 24H6.004A1.995 1.995 0 0 1 4 22.006V9.994A2 2 0 0 1 6.004 8zm-.001 1C5.449 9 5 9.45 5 10.007v11.986A.999.999 0 0 0 6.003 23h20.994c.554 0 1.003-.45 1.003-1.007V10.007A.999.999 0 0 0 26.997 9H6.003zM23 11h3v3h-3v-3zm1 1v1h1v-1h-1zM7 18v1h8v-1H7zm0-7v1h4v-1H7zm0 9v1h8v-1H7z"/></symbol><symbol id="icecream-icon" viewBox="0 0 32 32"><path d="M20.804 10.742c1.448-3.62-1.789-4.217-1.789-4.174 1.022-2.556-1.022-4.26-2.896-4.26s-1.789.853-1.789.853 1.022-.213 1.022.596c0 .81-.938.767-1.874 1.704-.938.937-.49.81-.554.81 1.948-.128 3.088 1.885 5.239 1.149-2.13 1.065-2.641-.628-4.941-.713-.298 0-2.002-.33-2.002 2.928 2.492.288 3.578 2.002 6.943 1.619-3.791 1.405-8.54-4.409-9.2 1.959 0 1.363 1.021 2.048 1.021 2.048h11.757c2.342-1.022 1.193-4.732-.937-4.519zM16.072 31 21.4 15.931H10.627L16.072 31z"/></symbol><symbol id="phone-icon" viewBox="0 0 48 48"><path d="M7 44c0 2.21 1.79 4 4 4h25c2.21 0 4-1.79 4-4V2.5a2.5 2.5 0 0 0-5 0V5H11C8.79 5 7 6.79 7 9v35zm7.2-34h18.6c1.22 0 2.2.98 2.2 2.2v10.6c0 1.22-.98 2.2-2.2 2.2H14.2c-1.22 0-2.2-.98-2.2-2.2V12.2c0-1.22.98-2.2 2.2-2.2zM12 31.5a2.5 2.5 0 0 1 5 0 2.5 2.5 0 0 1-5 0zm9 0a2.5 2.5 0 0 1 5 0 2.5 2.5 0 0 1-5 0zm9 0a2.5 2.5 0 0 1 5 0 2.5 2.5 0 0 1-5 0zm-18 9a2.5 2.5 0 0 1 5 0 2.5 2.5 0 0 1-5 0zm9 0a2.5 2.5 0 0 1 5 0 2.5 2.5 0 0 1-5 0zm9 0a2.5 2.5 0 0 1 5 0 2.5 2.5 0 0 1-5 0z"/></symbol><symbol id="icon-check" viewBox="0 0 32 32"><path d="M27 4 12 19l-7-7-5 5 12 12L32 9z"/></symbol><symbol id="city-icon" viewBox="0 0 24 24"><path d="M18.984 15v-2.016h-1.969V15h1.969zm0 3.984v-1.969h-1.969v1.969h1.969zm-6-12V5.015h-1.969v1.969h1.969zm0 4.032V9h-1.969v2.016h1.969zm0 3.984v-2.016h-1.969V15h1.969zm0 3.984v-1.969h-1.969v1.969h1.969zm-6-7.968V9H5.015v2.016h1.969zm0 3.984v-2.016H5.015V15h1.969zm0 3.984v-1.969H5.015v1.969h1.969zM15 11.016h6V21H3V6.984h6V5.015l3-3 3 3v6z"/></symbol><symbol id="icon-check" viewBox="0 0 32 32"><path d="M27 4 12 19l-7-7-5 5 12 12L32 9z"/></symbol><symbol id="Icecream-arrow1" viewBox="0 0 32 32"><path d="M25.137 16 16 0 6.863 16h18.275zM6.281 22.806c-.231.637-.35 1.631-.35 2.325C5.937 28.919 9.019 32 12.8 32c2.269 0 4.25-1.05 5.469-2.738 0 0 .637-.988.756-2.094l.231.056c.175.637.294 1.456-.119 2.269.525.175.7.175 1.281.175a5.403 5.403 0 0 0 5.413-5.412c0-.462-.056-1.106-.175-1.512.988-.231 1.744-1.163 1.744-2.212a2.273 2.273 0 0 0-2.269-2.269H6.862a2.273 2.273 0 0 0-2.269 2.269c0 1.113.7 1.988 1.688 2.275z"/></symbol><symbol id="Icecream-arrow2" viewBox="0 0 32 32"><path d="m18.619 4.594-.35-1.106c-.056-.119-.119-.119-.231-.056l-.525.35c-.175.119-.175.406 0 .525l.875.525c.113.056.231-.063.231-.237zm-5.006-1.1-.35 1.163c-.056.119.119.231.231.175l.931-.581c.119-.119.175-.294.119-.406 0-.056-.056-.056-.119-.119l-.525-.35c-.169 0-.287 0-.287.119zm7.45 13.612c.294-.294.756-.462 1.219-.637.056-.056.119-.119.119-.175l-.7-2.213-.294-.875c-.056-.119-.119-.119-.231-.056l-.525.35-2.794 1.688c-.231.119-.175.525.119.581a5.846 5.846 0 0 1 2.738 1.394c.056.056.231.056.35-.056zm-.294-5.237.175-.119-1.106-3.431c-.056-.119-.119-.119-.231-.056l-2.094 1.281c-.175.119-.175.406 0 .525l2.906 1.806c.119.05.238.05.35-.006zm-5-2.906c.119.056.231.056.294 0l3.2-1.981c.056-.056.056-.175 0-.231l-.056-.056-3.144-1.919a.386.386 0 0 0-.35 0l-3.2 1.919h-.056c-.056.056-.056.175 0 .231l3.313 2.038zM12.8 12.975l2.906 1.806a.386.386 0 0 0 .35 0l2.906-1.806c.119-.119.175-.294.119-.406 0-.056-.056-.056-.119-.119l-2.906-1.806a.386.386 0 0 0-.35 0L12.8 12.45c-.175.119-.175.406 0 .525zm-1.631 4.131c.756-.637 1.688-1.162 2.738-1.394.294-.056.35-.406.119-.581l-3.375-2.037c-.056-.056-.175 0-.231.056l-.294.931-.756 2.325c.525.175 1.05.406 1.394.7a.285.285 0 0 0 .406 0zm6.575-15.243-.119-.406S17.044.001 15.937.001c-1.162 0-1.688 1.456-1.688 1.456l-.119.35c-.056.119 0 .294.119.35l1.512.931c.119.056.231.056.294 0l1.512-.931c.175-.006.175-.119.175-.294zm-3.375 7.681-2.094-1.281c-.056-.056-.175 0-.231.056l-1.106 3.319c0 .056 0 .119.056.175l.056.056c.119.056.231.056.294 0l2.912-1.806c.287-.113.287-.406.113-.519z"/><path d="M6.75 22.75c.463-.406.987-.637 1.394-.813.119-.056.294.119.175.231l-.294.406c-.463.637-.638 1.456-.525 2.269.644 4.075 4.194 7.156 8.444 7.156s7.738-3.144 8.438-7.212c.119-.813-.056-1.631-.525-2.269l-.294-.406c-.119-.119.056-.294.175-.231.406.175 1.05.462 1.512.988a.345.345 0 0 0 .406.056c.756-.581 1.281-1.456 1.281-2.5a3.003 3.003 0 0 0-3.025-3.025c-.875 0-2.15.35-2.794.931a.275.275 0 0 1-.406 0c-1.163-1.05-2.794-1.512-4.712-1.512s-3.606.525-4.713 1.512a.275.275 0 0 1-.406 0c-.637-.581-1.919-.931-2.794-.931-1.688 0-3.025 1.394-3.025 3.081 0 .931.406 1.744 1.05 2.269.112.175.463.175.638 0z"/></symbol><symbol id="Icecream-arrow3" viewBox="0 0 32 32"><path d="M4.694 22.35a5.365 5.365 0 0 0 1.931 2.344 5.27 5.27 0 0 0 2.469.881c.056.769.238 1.506.525 2.188a6.85 6.85 0 0 0 2.506 3.05c.55.375 1.162.669 1.819.875a6.943 6.943 0 0 0 4.763-.231 7.026 7.026 0 0 0 3.044-2.512 6.887 6.887 0 0 0 1.169-3.369 5.229 5.229 0 0 0 1.556-.394 5.3 5.3 0 0 0 3.013-3.331c.156-.5.238-1.038.238-1.587 0-.725-.137-1.419-.387-2.056a5.23 5.23 0 0 0-1.856-2.356 5.03 5.03 0 0 0-2.019-.837v-2.744a2.68 2.68 0 0 0-1.874-2.544 2.449 2.449 0 0 0-.769-.119L16.991.645a1.064 1.064 0 0 0-.981-.65c-.425 0-.813.25-.981.644l-6.15 14.35a5.229 5.229 0 0 0-1.35.369 5.365 5.365 0 0 0-2.344 1.931 5.343 5.343 0 0 0-.906 2.987c0 .731.15 1.438.419 2.075zM16 3.775l2.856 6.669c-.1.106-.194.219-.275.338a2.682 2.682 0 0 0-.337.7 2.58 2.58 0 0 0-.119.794v3.406a6.116 6.116 0 0 0-.925-.306c-.381-.094-.794-.15-1.225-.15s-.856.069-1.244.194a4.289 4.289 0 0 0-1.556.9c-.031.025-.056.056-.088.081a5.097 5.097 0 0 0-.894-.706 4.888 4.888 0 0 0-1.081-.512l4.887-11.406zM6.675 19.038a3.191 3.191 0 0 1 2.001-1.806c.301-.094.619-.144.95-.144.256 0 .512.038.756.113.369.113.725.3 1.037.556.244.2.456.438.631.7a1.065 1.065 0 0 0 1.806.475l-.75-.762.769.738c.081-.087.144-.181.194-.281.175-.369.456-.7.794-.931.169-.113.35-.206.544-.269.188-.063.387-.094.594-.094a3.593 3.593 0 0 1 1.382.312c.113.05.206.106.244.137a1.803 1.803 0 0 0 1.044.344 1.595 1.595 0 0 0 1.05-.394c.194-.169.344-.394.431-.625.094-.231.131-.475.131-.712v-4.131a.565.565 0 0 1 .375-.513c.05-.012.1-.025.163-.025.075 0 .144.012.2.044a.557.557 0 0 1 .307.331c.012.05.025.1.025.162V16c0 .281.113.556.313.756s.475.313.756.313h.131a2.985 2.985 0 0 1 2.55 1.394c.325.506.519 1.125.519 1.813 0 .444-.087.863-.25 1.244a3.191 3.191 0 0 1-2 1.806 3.167 3.167 0 0 1-.95.144h-.531c-.281 0-.556.113-.756.313s-.313.475-.313.756v.531c0 .669-.131 1.294-.375 1.869a4.83 4.83 0 0 1-2.994 2.719 5.15 5.15 0 0 1-1.425.219 4.747 4.747 0 0 1-1.869-.375 4.821 4.821 0 0 1-2.718-2.994 5.113 5.113 0 0 1-.219-1.425v-.531c0-.281-.113-.556-.313-.756s-.475-.313-.756-.313h-.531c-.444 0-.863-.087-1.244-.25a3.191 3.191 0 0 1-1.806-2 3.167 3.167 0 0 1-.144-.95c0-.444.088-.863.25-1.244z"/></symbol><symbol id="Icecream-arrow4" viewBox="0 0 32 32"><path d="M11.196 21.258c-1.448 3.62 1.789 4.217 1.789 4.174-1.022 2.556 1.022 4.26 2.896 4.26s1.789-.853 1.789-.853-1.022.213-1.022-.596c0-.81.938-.767 1.874-1.704.938-.937.49-.81.554-.81-1.948.128-3.088-1.885-5.239-1.149 2.13-1.065 2.641.628 4.941.713.298 0 2.002.33 2.002-2.928-2.492-.288-3.578-2.002-6.943-1.619 3.791-1.405 8.54 4.409 9.2-1.959 0-1.363-1.021-2.048-1.021-2.048H10.259c-2.342 1.022-1.193 4.732.937 4.519zM15.928 1 10.6 16.069h10.773L15.928 1z"/></symbol></defs></svg>